<svg width="246" height="77" viewBox="0 0 246 77" fill="none" xmlns="http://www.w3.org/2000/svg">
<path d="M34.432 58.704C32.272 60.864 29.464 61.656 26.656 61.656C21.184 61.656 16.576 58.056 16.576 51.288C16.576 45.096 20.896 40.776 26.8 40.776C29.248 40.776 31.84 41.712 33.928 43.584L39.472 37.752C35.584 33.936 31.696 32.496 26.656 32.496C16.36 32.496 7.792 38.688 7.792 51.288C7.792 63.888 16.36 70.08 26.656 70.08C31.912 70.08 36.232 68.496 40.336 64.464L34.432 58.704ZM44.1925 18.672V69H52.9045V18.672H44.1925ZM69.3593 33.36V69H60.5753V33.36H69.3593ZM59.7833 23.496C59.7833 30.336 70.1513 30.336 70.1513 23.496C70.1513 16.656 59.7833 16.656 59.7833 23.496ZM88.9737 69V41.712H99.4137V34.008H88.9737V31.632C88.9737 27.312 91.2777 25.296 94.3017 25.296C96.1017 25.296 97.8297 25.944 99.7017 27.168L102.942 20.616C100.062 18.744 96.8217 17.736 93.7257 17.736C86.5977 17.736 80.1897 22.128 80.1897 31.632V34.008H73.5657V41.712H80.1897V69H88.9737ZM118.013 69V41.712H128.453V34.008H118.013V31.632C118.013 27.312 120.317 25.296 123.341 25.296C125.141 25.296 126.869 25.944 128.741 27.168L131.981 20.616C129.101 18.744 125.861 17.736 122.765 17.736C115.637 17.736 109.229 22.128 109.229 31.632V34.008H102.605V41.712H109.229V69H118.013ZM135.172 64.464C135.172 71.304 145.54 71.304 145.54 64.464C145.54 57.624 135.172 57.624 135.172 64.464ZM182.447 38.4C180.431 34.872 175.895 32.64 171.143 32.64C160.775 32.568 152.639 38.976 152.639 51.216C152.639 63.672 160.415 70.152 170.927 70.08C174.887 70.008 180.431 67.992 182.447 63.816L182.879 69H191.159V33.504H182.735L182.447 38.4ZM171.935 40.488C185.759 40.488 185.759 62.016 171.935 62.016C166.103 62.016 161.423 57.984 161.423 51.216C161.423 44.448 166.103 40.488 171.935 40.488ZM207.383 33.36V69H198.599V33.36H207.383ZM197.807 23.496C197.807 30.336 208.175 30.336 208.175 23.496C208.175 16.656 197.807 16.656 197.807 23.496Z" fill="#222236"/>
<path d="M196 7.4C196 9.8 198 11.8 200.4 11.8H212.1C215 11.8 217.3 14.1 217.3 17V27.6C217.3 30 219.3 32 221.7 32C224.1 32 226.1 30 226.1 27.6V7.9C226.1 5.2 223.9 3 221.2 3H200.4C198 3 196 5 196 7.4Z" fill="#6078FF"/>
</svg>
