<?xml version="1.0" encoding="UTF-8" standalone="no"?>
<!-- Created with Inkscape (http://www.inkscape.org/) -->

<svg
   version="1.1"
   id="svg2"
   width="1388.4746"
   height="1388.4746"
   viewBox="0 0 1388.4746 1388.4746"
   sodipodi:docname="kafka.svg"
   inkscape:version="1.1.2 (b8e25be833, 2022-02-05)"
   xmlns:inkscape="http://www.inkscape.org/namespaces/inkscape"
   xmlns:sodipodi="http://sodipodi.sourceforge.net/DTD/sodipodi-0.dtd"
   xmlns="http://www.w3.org/2000/svg"
   xmlns:svg="http://www.w3.org/2000/svg">
  <defs
     id="defs6" />
  <sodipodi:namedview
     id="namedview4"
     pagecolor="#ffffff"
     bordercolor="#666666"
     borderopacity="1.0"
     inkscape:pageshadow="2"
     inkscape:pageopacity="0.0"
     inkscape:pagecheckerboard="0"
     showgrid="false"
     inkscape:snap-page="true"
     inkscape:snap-text-baseline="true"
     inkscape:snap-center="true"
     inkscape:snap-object-midpoints="true"
     inkscape:snap-midpoints="true"
     inkscape:snap-smooth-nodes="true"
     inkscape:object-paths="true"
     inkscape:snap-intersection-paths="true"
     inkscape:snap-bbox="true"
     inkscape:bbox-paths="true"
     inkscape:bbox-nodes="true"
     inkscape:snap-bbox-edge-midpoints="true"
     inkscape:snap-bbox-midpoints="true"
     inkscape:zoom="0.20956411"
     inkscape:cx="-119.29524"
     inkscape:cy="622.72113"
     inkscape:window-width="1281"
     inkscape:window-height="1032"
     inkscape:window-x="-1920"
     inkscape:window-y="0"
     inkscape:window-maximized="0"
     inkscape:current-layer="g8" />
  <g
     inkscape:groupmode="layer"
     inkscape:label="Image"
     id="g8">
    <circle
       style="fill:#a1b8d3;stroke:none;stroke-width:6;fill-opacity:1"
       id="path849"
       cx="694.2373"
       cy="694.2373"
       r="694.2373" />
    <g
       style="fill:#ffffff"
       id="g834"
       transform="matrix(20.806736,0,0,20.806736,95.668844,69.722401)">
      <path
         d="m 26.468998,8.627 c -0.565,-0.578 -1.35,-0.933 -2.224,-0.933 -0.832487,-0.00337 -1.630174,0.3336975 -2.208,0.933 h -0.015 c -0.595595,0.6000441 -0.927728,1.412563 -0.923,2.258 -0.0058,0.841932 0.322542,1.651798 0.913,2.252 l 0.015,0.016 c 0.580185,0.594647 1.377219,0.927828 2.208,0.923 0.874,0 1.658,-0.35 2.224,-0.923 l 0.006,-0.016 c 0.566,-0.568 0.9,-1.363 0.9,-2.252 0.0055,-0.842958 -0.321906,-1.6540263 -0.911,-2.257 h 0.005 z m -2.224,43.68 c 0.874,0 1.658,-0.362 2.224,-0.93 l 0.006,-0.016 c 0.566,-0.566 0.9,-1.366 0.9,-2.245 0,-0.9 -0.345,-1.686 -0.9,-2.262 h -0.006 c -0.565,-0.583 -1.35,-0.936 -2.224,-0.936 -0.833405,-0.0049 -1.632048,0.333616 -2.208,0.936 h -0.015 c -0.589204,0.605088 -0.917091,1.417443 -0.913,2.262 -0.0039,0.839512 0.324258,1.646521 0.913,2.245 l 0.015,0.016 c 0.581144,0.593961 1.377025,0.928822 2.208,0.929 z m 17.084,-9.667 c 0.810991,-0.215163 1.500128,-0.749875 1.91,-1.482 l 0.058,-0.112 c 0.370348,-0.711735 0.458897,-1.53689 0.248,-2.311 -0.206,-0.796 -0.7,-1.502 -1.462,-1.94 l -0.044,-0.03 c -0.70956,-0.400255 -1.548793,-0.503092 -2.334,-0.286 -0.78,0.198 -1.48,0.727 -1.908,1.487 -0.416017,0.736704 -0.529331,1.606286 -0.316,2.425 0.215624,0.812842 0.739762,1.509541 1.461,1.942 h 0.005 c 0.75,0.44 1.597,0.517 2.383,0.3 z m -13.877,-15.9 c -0.823,-0.835 -1.96,-1.36 -3.216,-1.36 -1.209356,0.0022 -2.366684,0.492187 -3.21,1.359 -0.82,0.834 -1.324,1.985 -1.324,3.265 -0.0034,1.223886 0.471733,2.400622 1.324,3.279 0.82,0.83 1.954,1.35 3.2,1.35 1.246,0 2.393,-0.52 3.216,-1.35 0.853241,-0.878306 1.329138,-2.055487 1.326,-3.28 0.0056,-1.220571 -0.470911,-2.393996 -1.326,-3.265 z m -1.8,-5.438 c 1.795458,0.304288 3.447311,1.172597 4.716,2.479 h 0.01 c 0.201698,0.20595 0.392939,0.421888 0.573,0.647 l 3.13,-1.843 c -0.411802,-1.268377 -0.44723,-2.62891 -0.102,-3.917 0.446,-1.7 1.53,-3.22 3.152,-4.173 l 0.053,-0.034 c 1.535282,-0.89191 3.364162,-1.130742 5.077,-0.663 1.73924,0.476192 3.215635,1.6285 4.1,3.2 v 0.005 c 0.932,1.64 1.12,3.522 0.677,5.216 -0.444,1.7 -1.53,3.23 -3.152,4.178 l -0.428,0.257 h -0.043 c -1.451156,0.702079 -3.107023,0.856551 -4.663,0.435 -1.267865,-0.348153 -2.406686,-1.058482 -3.277,-2.044 l -3.126,1.837 c 0.371497,0.995373 0.56052,2.049563 0.558,3.112 0,1.096 -0.198,2.154 -0.558,3.126 l 3.126,1.833 c 0.893,-1.018 2.034,-1.7 3.277,-2.045 1.67,-0.464 3.518,-0.267 5.134,0.692 l 0.104,0.05 v 0.005 c 1.511959,0.93013 2.604496,2.410144 3.048,4.129 0.462828,1.758802 0.219876,3.628847 -0.677,5.211 l -0.056,0.115 h -0.007 c -0.89405,1.521137 -2.342836,2.63658 -4.042,3.112 -1.67,0.448 -3.52,0.257 -5.135,-0.688 v -0.013 c -1.562358,-0.919047 -2.696032,-2.420662 -3.152,-4.175 -0.34577,-1.285999 -0.310333,-2.644772 0.102,-3.911 l -3.13,-1.838 c -0.180459,0.221584 -0.371689,0.434173 -0.573,0.637 l -0.01,0.01 c -1.252,1.28 -2.9,2.17 -4.716,2.465 v 3.68 c 1.284607,0.277142 2.45914,0.926491 3.377,1.867 l 0.005,0.01 c 1.223,1.238 1.98,2.964 1.98,4.86 0.0032,1.814091 -0.7081,3.556475 -1.98,4.85 l -0.005,0.02 c -1.23,1.234 -2.92,2.004 -4.783,2.004 -1.854,0 -3.548,-0.77 -4.776,-2.015 h -0.005 v -0.02 c -1.273242,-1.293287 -1.985687,-3.036137 -1.983,-4.851 0,-1.897 0.76,-3.622 1.983,-4.86 v -0.01 h 0.005 c 0.912984,-0.94531 2.088123,-1.595573 3.374,-1.867 v -3.68 c -1.825,-0.296 -3.46,-1.185 -4.7,-2.465 l -0.013,-0.01 c -1.634698,-1.660456 -2.551256,-3.896903 -2.552,-6.227 0,-2.43 0.978,-4.628 2.54,-6.223 h 0.013 c 1.266521,-1.306598 2.916876,-2.17504 4.711,-2.479 v -3.665 c -1.281622,-0.285671 -2.453328,-0.93577 -3.374,-1.872 h -0.005 v -0.01 c -1.27384,-1.296962 -1.98616,-3.043098 -1.983,-4.861 -0.0018,-1.8173462 0.710319,-3.5626825 1.983,-4.86 l 0.015,-0.005 c 1.250887,-1.2896382 2.970369,-2.018263 4.767,-2.02 1.864,0 3.553,0.77 4.784,2.02 v 0.005 h 0.005 c 1.223,1.245 1.98,2.973 1.98,4.86 0.0016,1.816712 -0.709329,3.561601 -1.98,4.86 l -0.005,0.01 c -0.912,0.924 -2.076,1.585 -3.377,1.872 v 3.665 z m 17.585,-2.445 -0.026,-0.04 c -0.414854,-0.70952 -1.090593,-1.228795 -1.883,-1.447 -0.806107,-0.22174 -1.667663,-0.107371 -2.388,0.317 h 0.005 c -0.752,0.434 -1.255,1.145 -1.466,1.94 -0.215482,0.818577 -0.10206,1.688979 0.316,2.425 l 0.014,0.02 c 0.433,0.75 1.123,1.255 1.893,1.458 0.773,0.222 1.636,0.128 2.378,-0.312 l 0.04,-0.02 c 0.73,-0.444 1.22,-1.146 1.422,-1.916 0.207,-0.795 0.125,-1.664 -0.305,-2.425"
         id="path2"
         sodipodi:nodetypes="cccccccccccccccccsccccccccccccccccccccccccccccsccccccccccccccccccccccccccccccccccccccccccccccccsccccccccccccccccccccccccccccccccccccccccccccc"
         style="fill:#ffffff" />
    </g>
  </g>
</svg>
