<svg width="108" height="24" viewBox="0 0 108 24" fill="none" xmlns="http://www.w3.org/2000/svg">
<path d="M0.628906 16.4832V19.1858H2.44848C3.17988 19.1858 3.75964 19.0877 4.18778 18.8915C4.59808 18.6774 4.98161 18.3385 5.33839 17.8746L5.41867 17.7676C6.91714 18.8201 8.67428 19.3464 10.6901 19.3464C12.4561 19.3464 14.0349 18.9361 15.4263 18.1155C16.7999 17.2949 17.8703 16.1621 18.6373 14.7171C19.4044 13.2722 19.788 11.6399 19.788 9.82035C19.788 8.00078 19.4044 6.36851 18.6373 4.92355C17.8703 3.4786 16.7999 2.34582 15.4263 1.52523C14.0349 0.704638 12.4561 0.294342 10.6901 0.294342C8.92402 0.294342 7.3542 0.704638 5.98059 1.52523C4.58916 2.34582 3.5099 3.4786 2.74282 4.92355C1.97575 6.36851 1.59221 8.00078 1.59221 9.82035C1.59221 10.9977 1.76168 12.1127 2.10062 13.1652C2.43956 14.1998 2.92121 15.1364 3.54558 15.9748C3.20664 16.3137 2.7785 16.4832 2.26117 16.4832H0.628906ZM10.6901 16.6438C9.35216 16.6438 8.18371 16.2602 7.18473 15.4931L7.5861 14.958C7.81801 14.6369 8.04991 14.405 8.28182 14.2623C8.51373 14.1195 8.78131 14.0482 9.08457 14.0482H10.7436V11.3723H8.73672C8.07667 11.3723 7.55934 11.4794 7.18473 11.6934C6.79227 11.8897 6.42657 12.2197 6.08763 12.6835L5.5257 13.406C5.00837 12.3713 4.74971 11.1761 4.74971 9.82035C4.74971 8.51811 4.99945 7.34965 5.49894 6.31499C5.99843 5.26249 6.70307 4.45082 7.61286 3.87997C8.50481 3.29129 9.53055 2.99694 10.6901 2.99694C11.8496 2.99694 12.8843 3.29129 13.7941 3.87997C14.686 4.45082 15.3817 5.26249 15.8812 6.31499C16.3807 7.34965 16.6305 8.51811 16.6305 9.82035C16.6305 11.1226 16.3807 12.3 15.8812 13.3525C15.3817 14.3871 14.686 15.1988 13.7941 15.7875C12.8843 16.3583 11.8496 16.6438 10.6901 16.6438Z" fill="#0D1F23"/>
<path d="M33.6432 5.48548V19.1858H31.1011L30.78 17.4465C29.7454 18.7131 28.3361 19.3464 26.5522 19.3464C24.9467 19.3464 23.6444 18.8469 22.6455 17.8479C21.6465 16.8489 21.147 15.2434 21.147 13.0314V5.48548H24.0369V12.737C24.0369 14.0749 24.3045 15.0918 24.8397 15.7875C25.3748 16.4832 26.1687 16.8311 27.2212 16.8311C28.3272 16.8311 29.1924 16.4297 29.8167 15.6269C30.4411 14.8063 30.7533 13.6914 30.7533 12.2821V5.48548H33.6432Z" fill="#0D1F23"/>
<path d="M49.6027 16.6705V19.1858H48.0775C47.1855 19.1858 46.5433 18.9985 46.1509 18.6239C45.7584 18.2493 45.5622 17.7052 45.5622 16.9916C44.5275 18.5614 43.0201 19.3464 41.04 19.3464C39.5059 19.3464 38.275 18.9896 37.3473 18.276C36.4197 17.5625 35.9559 16.5813 35.9559 15.3326C35.9559 13.9233 36.4554 12.8441 37.4544 12.0948C38.4534 11.3277 39.9072 10.9442 41.816 10.9442H45.2678V10.1147C45.2678 9.34762 45.0003 8.75001 44.4651 8.32188C43.9299 7.8759 43.1896 7.65292 42.2441 7.65292C41.4057 7.65292 40.71 7.84022 40.157 8.21484C39.6218 8.57162 39.3007 9.05327 39.1937 9.6598H36.3573C36.5 8.2862 37.1065 7.22478 38.1769 6.47554C39.2472 5.70847 40.6476 5.32493 42.3779 5.32493C44.2153 5.32493 45.6335 5.75307 46.6325 6.60934C47.6315 7.46561 48.131 8.69649 48.131 10.302V15.7072C48.131 16.3494 48.4343 16.6705 49.0408 16.6705H49.6027ZM45.2678 13.0849H41.6822C40.7903 13.0849 40.1035 13.2633 39.6218 13.62C39.1402 13.959 38.8993 14.4674 38.8993 15.1453C38.8993 15.734 39.1223 16.2067 39.5683 16.5635C40.0321 16.9203 40.6565 17.0986 41.4414 17.0986C42.6366 17.0986 43.5642 16.7775 44.2243 16.1353C44.9021 15.4931 45.25 14.6369 45.2678 13.5665V13.0849Z" fill="#0D1F23"/>
<path d="M58.4016 5.32493C60.025 5.32493 61.3451 5.82442 62.3619 6.8234C63.3966 7.82239 63.9139 9.42789 63.9139 11.6399V19.1858H60.9972V11.8005C60.9972 10.4982 60.7207 9.50817 60.1677 8.83029C59.6147 8.15241 58.803 7.81347 57.7327 7.81347C56.591 7.81347 55.6901 8.21484 55.0301 9.0176C54.3879 9.80251 54.0668 10.8907 54.0668 12.2821V19.1858H51.1769V5.48548H53.6922L54.0133 7.2783C55.0479 5.97605 56.5107 5.32493 58.4016 5.32493Z" fill="#0D1F23"/>
<path d="M67.4251 8.02753H65.0436V5.48548H67.4251V1.65902H70.3418V5.48548H73.633V8.02753H70.3418V15.172C70.3418 15.7072 70.4488 16.0907 70.6629 16.3227C70.8769 16.5367 71.2426 16.6438 71.76 16.6438H73.9542V19.1858H71.1713C69.869 19.1858 68.9146 18.8825 68.3081 18.276C67.7194 17.6695 67.4251 16.7329 67.4251 15.4664V8.02753Z" fill="#0D1F23"/>
<path d="M76.9501 0C77.4495 0 77.8688 0.16947 78.2077 0.50841C78.5466 0.829512 78.7161 1.23981 78.7161 1.7393C78.7161 2.23879 78.5466 2.658 78.2077 2.99694C77.8688 3.31805 77.4495 3.4786 76.9501 3.4786C76.4506 3.4786 76.0313 3.31805 75.6924 2.99694C75.3535 2.658 75.184 2.23879 75.184 1.7393C75.184 1.23981 75.3535 0.829512 75.6924 0.50841C76.0313 0.16947 76.4506 0 76.9501 0ZM75.5051 5.48548H78.395V19.1858H75.5051V5.48548Z" fill="#0D1F23"/>
<path d="M79.8632 5.48548H82.9671L86.7401 16.0818L90.4595 5.48548H93.51L88.4526 19.1858H84.9205L79.8632 5.48548Z" fill="#0D1F23"/>
<path d="M93.9419 12.3624C93.9419 10.9531 94.2184 9.72223 94.7714 8.66974C95.3422 7.5994 96.1272 6.77881 97.1261 6.20796C98.143 5.61927 99.3025 5.32493 100.605 5.32493C101.925 5.32493 103.084 5.59251 104.083 6.12768C105.1 6.66285 105.894 7.42101 106.465 8.40215C107.054 9.38329 107.357 10.5339 107.375 11.854C107.375 12.2108 107.348 12.5765 107.294 12.9511H96.9656V13.1116C97.0369 14.3068 97.4116 15.2523 98.0894 15.948C98.7673 16.6438 99.6682 16.9916 100.792 16.9916C101.684 16.9916 102.433 16.7865 103.04 16.3762C103.646 15.948 104.048 15.3504 104.244 14.5834H107.134C106.884 15.9748 106.206 17.1165 105.1 18.0084C104.012 18.9004 102.647 19.3464 101.006 19.3464C99.579 19.3464 98.3303 19.0609 97.2599 18.4901C96.2074 17.9014 95.3868 17.0808 94.7981 16.0283C94.2273 14.9758 93.9419 13.7538 93.9419 12.3624ZM104.431 10.8372C104.306 9.83819 103.905 9.06219 103.227 8.50919C102.567 7.93834 101.729 7.65292 100.712 7.65292C99.7663 7.65292 98.9457 7.94726 98.25 8.53594C97.5721 9.10679 97.1796 9.87387 97.0726 10.8372H104.431Z" fill="#0D1F23"/>
</svg>
